<svg width="28" height="28" viewBox="0 0 28 28" fill="none" xmlns="http://www.w3.org/2000/svg">
<g clip-path="url(#clip0_6840_22)">
<path fill-rule="evenodd" clip-rule="evenodd" d="M25.375 14C25.375 17.0168 24.1766 19.9101 22.0433 22.0433C19.9101 24.1766 17.0168 25.375 14 25.375C10.9832 25.375 8.08989 24.1766 5.95666 22.0433C3.82343 19.9101 2.625 17.0168 2.625 14C2.625 10.9832 3.82343 8.08989 5.95666 5.95666C8.08989 3.82343 10.9832 2.625 14 2.625C17.0168 2.625 19.9101 3.82343 22.0433 5.95666C24.1766 8.08989 25.375 10.9832 25.375 14ZM28 14C28 17.713 26.525 21.274 23.8995 23.8995C21.274 26.525 17.713 28 14 28C10.287 28 6.72601 26.525 4.10051 23.8995C1.475 21.274 0 17.713 0 14C0 10.287 1.475 6.72601 4.10051 4.10051C6.72601 1.475 10.287 0 14 0C17.713 0 21.274 1.475 23.8995 4.10051C26.525 6.72601 28 10.287 28 14ZM9.24 7.385C8.99119 7.15316 8.66211 7.02694 8.32209 7.03294C7.98206 7.03894 7.65763 7.17669 7.41716 7.41716C7.17669 7.65763 7.03894 7.98206 7.03294 8.32209C7.02694 8.66211 7.15316 8.99119 7.385 9.24L18.76 20.615C18.8802 20.744 19.0251 20.8474 19.1861 20.9191C19.3471 20.9909 19.5209 21.0294 19.6971 21.0325C19.8733 21.0356 20.0484 21.0032 20.2118 20.9372C20.3752 20.8712 20.5237 20.7729 20.6483 20.6483C20.7729 20.5237 20.8712 20.3752 20.9372 20.2118C21.0032 20.0484 21.0356 19.8733 21.0325 19.6971C21.0294 19.5209 20.9909 19.3471 20.9191 19.1861C20.8474 19.0251 20.744 18.8802 20.615 18.76L9.24 7.385Z" fill="#9550E9"/>
</g>
<defs>
<clipPath id="clip0_6840_22">
<rect width="28" height="28" fill="white"/>
</clipPath>
</defs>
</svg>
