<svg width="24" height="24" viewBox="0 0 24 24" fill="none" xmlns="http://www.w3.org/2000/svg">
<g clip-path="url(#clip0_6829_5)">
<path d="M4 20C3.45 20 2.979 19.804 2.587 19.412C2.195 19.02 1.99934 18.5493 2 18V6C2 5.45 2.196 4.979 2.588 4.587C2.98 4.195 3.45067 3.99934 4 4H20C20.55 4 21.021 4.196 21.413 4.588C21.805 4.98 22.0007 5.45067 22 6V12H4V18H14V20H4ZM4 8H20V6H4V8ZM19 22V19H16V17H19V14H21V17H24V19H21V22H19Z" fill="#9550E9"/>
</g>
<defs>
<clipPath id="clip0_6829_5">
<rect width="24" height="24" fill="white"/>
</clipPath>
</defs>
</svg>
