<svg width="20" height="16" viewBox="0 0 20 16" fill="none" xmlns="http://www.w3.org/2000/svg">
<path d="M1.11111 4.57143C0.796296 4.57143 0.532593 4.46171 0.32 4.24229C0.106667 4.02362 0 3.75238 0 3.42857V1.14286C0 0.819048 0.106667 0.547429 0.32 0.328C0.532593 0.109334 0.796296 0 1.11111 0H3.33333C3.64815 0 3.91222 0.109334 4.12556 0.328C4.33815 0.547429 4.44444 0.819048 4.44444 1.14286V3.42857C4.44444 3.75238 4.33815 4.02362 4.12556 4.24229C3.91222 4.46171 3.64815 4.57143 3.33333 4.57143H1.11111ZM6.66667 4.57143C6.35185 4.57143 6.08815 4.46171 5.87556 4.24229C5.66222 4.02362 5.55556 3.75238 5.55556 3.42857V1.14286C5.55556 0.819048 5.66222 0.547429 5.87556 0.328C6.08815 0.109334 6.35185 0 6.66667 0H18.8889C19.2037 0 19.4674 0.109334 19.68 0.328C19.8933 0.547429 20 0.819048 20 1.14286V3.42857C20 3.75238 19.8933 4.02362 19.68 4.24229C19.4674 4.46171 19.2037 4.57143 18.8889 4.57143H6.66667ZM6.66667 10.2857C6.35185 10.2857 6.08815 10.176 5.87556 9.95657C5.66222 9.73791 5.55556 9.46667 5.55556 9.14286V6.85714C5.55556 6.53333 5.66222 6.26171 5.87556 6.04229C6.08815 5.82362 6.35185 5.71429 6.66667 5.71429H18.8889C19.2037 5.71429 19.4674 5.82362 19.68 6.04229C19.8933 6.26171 20 6.53333 20 6.85714V9.14286C20 9.46667 19.8933 9.73791 19.68 9.95657C19.4674 10.176 19.2037 10.2857 18.8889 10.2857H6.66667ZM1.11111 10.2857C0.796296 10.2857 0.532593 10.176 0.32 9.95657C0.106667 9.73791 0 9.46667 0 9.14286V6.85714C0 6.53333 0.106667 6.26171 0.32 6.04229C0.532593 5.82362 0.796296 5.71429 1.11111 5.71429H3.33333C3.64815 5.71429 3.91222 5.82362 4.12556 6.04229C4.33815 6.26171 4.44444 6.53333 4.44444 6.85714V9.14286C4.44444 9.46667 4.33815 9.73791 4.12556 9.95657C3.91222 10.176 3.64815 10.2857 3.33333 10.2857H1.11111ZM6.66667 16C6.35185 16 6.08815 15.8903 5.87556 15.6709C5.66222 15.4522 5.55556 15.181 5.55556 14.8571V12.5714C5.55556 12.2476 5.66222 11.976 5.87556 11.7566C6.08815 11.5379 6.35185 11.4286 6.66667 11.4286H18.8889C19.2037 11.4286 19.4674 11.5379 19.68 11.7566C19.8933 11.976 20 12.2476 20 12.5714V14.8571C20 15.181 19.8933 15.4522 19.68 15.6709C19.4674 15.8903 19.2037 16 18.8889 16H6.66667ZM1.11111 16C0.796296 16 0.532593 15.8903 0.32 15.6709C0.106667 15.4522 0 15.181 0 14.8571V12.5714C0 12.2476 0.106667 11.976 0.32 11.7566C0.532593 11.5379 0.796296 11.4286 1.11111 11.4286H3.33333C3.64815 11.4286 3.91222 11.5379 4.12556 11.7566C4.33815 11.976 4.44444 12.2476 4.44444 12.5714V14.8571C4.44444 15.181 4.33815 15.4522 4.12556 15.6709C3.91222 15.8903 3.64815 16 3.33333 16H1.11111Z" fill="#9550E9"/>
</svg>
