<svg width="16" height="14" viewBox="0 0 16 14" fill="none" xmlns="http://www.w3.org/2000/svg">
<g clip-path="url(#clip0_31769_852)">
<path d="M1.33341 0.833252H6.66675C6.92927 0.833252 7.08341 1.0128 7.08341 1.16659V5.83325C7.08341 5.98703 6.92927 6.16658 6.66675 6.16658H1.33341C1.07089 6.16658 0.916748 5.98703 0.916748 5.83325V1.16659C0.916748 1.0128 1.07089 0.833252 1.33341 0.833252Z" stroke="black" stroke-width="0.5"/>
<path d="M1.33341 7.83325H6.66675C6.92927 7.83325 7.08341 8.0128 7.08341 8.16659V12.8333C7.08341 12.987 6.92927 13.1666 6.66675 13.1666H1.33341C1.07089 13.1666 0.916748 12.987 0.916748 12.8333V8.16659C0.916748 8.0128 1.07089 7.83325 1.33341 7.83325Z" stroke="black" stroke-width="0.5"/>
<path d="M9.33341 7.83325H14.6667C14.9293 7.83325 15.0834 8.0128 15.0834 8.16659V12.8333C15.0834 12.987 14.9293 13.1666 14.6667 13.1666H9.33341C9.07089 13.1666 8.91675 12.987 8.91675 12.8333V8.16659C8.91675 8.0128 9.07089 7.83325 9.33341 7.83325Z" stroke="black" stroke-width="0.5"/>
</g>
<defs>
<clipPath id="clip0_31769_852">
<rect width="16" height="14" fill="white"/>
</clipPath>
</defs>
</svg>
