<svg width="16" height="14" viewBox="0 0 16 14" fill="none" xmlns="http://www.w3.org/2000/svg">
<g clip-path="url(#clip0_31769_852)">
<path d="M6.66675 0.583252H1.33341C0.965225 0.583252 0.666748 0.844419 0.666748 1.16659V5.83325C0.666748 6.15542 0.965225 6.41658 1.33341 6.41658H6.66675C7.03494 6.41658 7.33341 6.15542 7.33341 5.83325V1.16659C7.33341 0.844419 7.03494 0.583252 6.66675 0.583252Z" fill="#9550E9"/>
<path d="M6.66675 7.58325H1.33341C0.965225 7.58325 0.666748 7.84442 0.666748 8.16659V12.8333C0.666748 13.1554 0.965225 13.4166 1.33341 13.4166H6.66675C7.03494 13.4166 7.33341 13.1554 7.33341 12.8333V8.16659C7.33341 7.84442 7.03494 7.58325 6.66675 7.58325Z" fill="#9550E9"/>
<path d="M14.6667 7.58325H9.33341C8.96522 7.58325 8.66675 7.84442 8.66675 8.16659V12.8333C8.66675 13.1554 8.96522 13.4166 9.33341 13.4166H14.6667C15.0349 13.4166 15.3334 13.1554 15.3334 12.8333V8.16659C15.3334 7.84442 15.0349 7.58325 14.6667 7.58325Z" fill="#9550E9"/>
</g>
<defs>
<clipPath id="clip0_31769_852">
<rect width="16" height="14" fill="white"/>
</clipPath>
</defs>
</svg>
