<svg width="28" height="28" viewBox="0 0 28 28" fill="none" xmlns="http://www.w3.org/2000/svg">
<g clip-path="url(#clip0_6840_14)">
<path d="M18.2236 13.09C18.0782 12.9425 17.8801 12.8588 17.673 12.8574C17.4659 12.8559 17.2667 12.9368 17.1192 13.0822C16.9717 13.2277 16.888 13.4257 16.8865 13.6328C16.8851 13.84 16.966 14.0392 17.1114 14.1867L20.0047 17.1111H6.09028C5.884 17.1111 5.68617 17.1931 5.54031 17.3389C5.39444 17.4848 5.3125 17.6826 5.3125 17.8889C5.3125 18.0952 5.39444 18.293 5.54031 18.4389C5.68617 18.5847 5.884 18.6667 6.09028 18.6667H20.0047L17.1114 21.5445C17.0394 21.617 16.9824 21.703 16.9436 21.7975C16.9048 21.8921 16.885 21.9933 16.8854 22.0955C16.8858 22.1977 16.9062 22.2989 16.9457 22.3931C16.9851 22.4874 17.0428 22.573 17.1153 22.645C17.1878 22.717 17.2738 22.774 17.3683 22.8128C17.4629 22.8516 17.5642 22.8714 17.6664 22.871C17.7686 22.8706 17.8697 22.8501 17.964 22.8107C18.0582 22.7713 18.1438 22.7136 18.2158 22.6411L22.9681 17.8889L18.2236 13.09Z" fill="#9550E9"/>
<path d="M10.2976 14.35C10.4521 14.3509 10.6033 14.3058 10.7321 14.2204C10.8608 14.135 10.9612 14.0132 11.0205 13.8705C11.0797 13.7278 11.0951 13.5707 11.0647 13.4192C11.0343 13.2678 10.9595 13.1288 10.8498 13.02L7.96427 10.1111H21.8709C22.0772 10.1111 22.2751 10.0292 22.4209 9.88331C22.5668 9.73744 22.6487 9.53961 22.6487 9.33333C22.6487 9.12705 22.5668 8.92922 22.4209 8.78336C22.2751 8.6375 22.0772 8.55556 21.8709 8.55556H7.96427L10.8498 5.65444C10.9218 5.58193 10.9789 5.49593 11.0176 5.40138C11.0564 5.30682 11.0762 5.20556 11.0758 5.10336C11.0755 5.00117 11.055 4.90004 11.0155 4.80576C10.9761 4.71148 10.9185 4.6259 10.8459 4.55389C10.7734 4.48188 10.6874 4.42486 10.5929 4.38609C10.4983 4.34731 10.3971 4.32754 10.2949 4.3279C10.0885 4.32863 9.89081 4.41132 9.74539 4.55778L4.99316 9.33333L9.74539 14.1089C9.81677 14.1838 9.90238 14.2437 9.9972 14.2851C10.092 14.3265 10.1942 14.3486 10.2976 14.35Z" fill="#9550E9"/>
</g>
<defs>
<clipPath id="clip0_6840_14">
<rect width="28" height="28" fill="white"/>
</clipPath>
</defs>
</svg>
