<svg width="33" height="41" viewBox="0 0 33 41" fill="none" xmlns="http://www.w3.org/2000/svg">
<path d="M29.8269 5.70834H22.8462V4.44792C22.8462 2.36296 21.138 0.666672 19.0385 0.666672H13.9615C11.862 0.666672 10.1538 2.36296 10.1538 4.44792V5.70834H3.17308C1.42344 5.70834 0 7.1219 0 8.85938V13.2708C0 13.9669 0.568298 14.5313 1.26923 14.5313H1.96287L3.0594 37.3986C3.15626 39.4181 4.82688 41 6.86273 41H26.1373C28.1732 41 29.8438 39.4181 29.9406 37.3986L31.0371 14.5313H31.7308C32.4317 14.5313 33 13.9669 33 13.2708V8.85938C33 7.1219 31.5766 5.70834 29.8269 5.70834ZM12.6923 4.44792C12.6923 3.75296 13.2617 3.18751 13.9615 3.18751H19.0385C19.7383 3.18751 20.3077 3.75296 20.3077 4.44792V5.70834H12.6923V4.44792ZM2.53846 8.85938C2.53846 8.5119 2.82317 8.22917 3.17308 8.22917H29.8269C30.1768 8.22917 30.4615 8.5119 30.4615 8.85938V12.0104C30.0704 12.0104 4.15935 12.0104 2.53846 12.0104V8.85938ZM27.405 37.2787C27.3727 37.9518 26.8158 38.4792 26.1373 38.4792H6.86273C6.18409 38.4792 5.62721 37.9518 5.59501 37.2787L4.50418 14.5313H28.4958L27.405 37.2787Z" fill="#9550E9"/>
</svg>
