<svg width="28" height="28" viewBox="0 0 28 28" fill="none" xmlns="http://www.w3.org/2000/svg">
<path d="M12.2963 16.9517L9.81134 14.4667L8.57467 15.7033L12.2847 19.4133L19.2847 12.4133L18.048 11.1767L12.2963 16.9517ZM13.9997 23.3333C11.8337 23.3333 9.75652 22.4729 8.22497 20.9414C6.69342 19.4098 5.83301 17.3326 5.83301 15.1667C5.83301 13.0007 6.69342 10.9235 8.22497 9.39196C9.75652 7.86041 11.8337 7 13.9997 7C16.1656 7 18.2428 7.86041 19.7744 9.39196C21.3059 10.9235 22.1663 13.0007 22.1663 15.1667C22.1663 17.3326 21.3059 19.4098 19.7744 20.9414C18.2428 22.4729 16.1656 23.3333 13.9997 23.3333ZM13.9997 4.66666C11.2149 4.66666 8.54418 5.77291 6.57505 7.74204C4.60592 9.71117 3.49967 12.3819 3.49967 15.1667C3.49967 17.9514 4.60592 20.6222 6.57505 22.5913C8.54418 24.5604 11.2149 25.6667 13.9997 25.6667C16.7844 25.6667 19.4552 24.5604 21.4243 22.5913C23.3934 20.6222 24.4997 17.9514 24.4997 15.1667C24.4997 12.3819 23.3934 9.71117 21.4243 7.74204C19.4552 5.77291 16.7844 4.66666 13.9997 4.66666ZM9.19301 3.955L7.69967 2.17L2.33301 6.66166L3.83801 8.44666L9.19301 3.955ZM25.6663 6.67333L20.2997 2.17L18.7947 3.955L24.1613 8.45833L25.6663 6.67333Z" fill="#9550E9"/>
</svg>
