<svg width="34" height="34" viewBox="0 0 34 34" fill="none" xmlns="http://www.w3.org/2000/svg">
<g clip-path="url(#clip0_6837_3)">
<path fill-rule="evenodd" clip-rule="evenodd" d="M16.9998 20.0048L24.5123 27.5188C24.911 27.9174 25.4517 28.1414 26.0154 28.1414C26.5792 28.1414 27.1199 27.9174 27.5185 27.5188C27.9172 27.1201 28.1411 26.5794 28.1411 26.0157C28.1411 25.4519 27.9172 24.9112 27.5185 24.5126L20.0031 17L27.5171 9.48742C27.7144 9.29003 27.8709 9.05572 27.9776 8.79785C28.0844 8.53999 28.1393 8.26363 28.1392 7.98454C28.1391 7.70546 28.0841 7.42912 27.9772 7.17131C27.8704 6.9135 27.7138 6.67926 27.5164 6.48196C27.319 6.28467 27.0847 6.12818 26.8268 6.02144C26.569 5.9147 26.2926 5.8598 26.0135 5.85987C25.7344 5.85993 25.4581 5.91497 25.2003 6.02183C24.9425 6.12869 24.7082 6.28528 24.5109 6.48267L16.9998 13.9953L9.48718 6.48267C9.29125 6.27962 9.05685 6.11763 8.79764 6.00614C8.53844 5.89465 8.25962 5.83589 7.97747 5.83331C7.69531 5.83073 7.41547 5.88436 7.15427 5.99108C6.89306 6.09781 6.65573 6.25548 6.45611 6.45491C6.2565 6.65434 6.0986 6.89152 5.99163 7.15263C5.88466 7.41373 5.83076 7.69352 5.83308 7.97568C5.8354 8.25783 5.89389 8.5367 6.00513 8.79601C6.11638 9.05532 6.27815 9.28988 6.48101 9.486L13.9964 17L6.48243 24.5126C6.08379 24.9112 5.85983 25.4519 5.85983 26.0157C5.85983 26.5794 6.08379 27.1201 6.48243 27.5188C6.88107 27.9174 7.42175 28.1414 7.98552 28.1414C8.54928 28.1414 9.08996 27.9174 9.4886 27.5188L16.9998 20.0033V20.0048Z" fill="#9550E9"/>
</g>
<defs>
<clipPath id="clip0_6837_3">
<rect width="34" height="34" fill="white"/>
</clipPath>
</defs>
</svg>
