<svg width="26" height="26" viewBox="0 0 26 26" fill="none" xmlns="http://www.w3.org/2000/svg">
<path d="M5.41667 20.5833H6.93334L16.2771 11.2396L14.7604 9.72292L5.41667 19.0667V20.5833ZM20.9083 9.66876L16.3042 5.11876L17.8208 3.60209C18.2361 3.18681 18.7464 2.97917 19.3516 2.97917C19.9568 2.97917 20.4667 3.18681 20.8813 3.60209L22.3979 5.11876C22.8132 5.53403 23.0299 6.03526 23.0479 6.62242C23.066 7.20959 22.8674 7.71045 22.4521 8.12501L20.9083 9.66876ZM4.33334 22.75C4.02639 22.75 3.76892 22.646 3.56092 22.438C3.35292 22.23 3.24928 21.9729 3.25 21.6667V18.6063C3.25 18.4618 3.27709 18.3217 3.33125 18.1859C3.38542 18.0501 3.46667 17.9285 3.575 17.8208L14.7333 6.66251L19.3375 11.2667L8.17917 22.425C8.07084 22.5333 7.94914 22.6146 7.81409 22.6688C7.67903 22.7229 7.53892 22.75 7.39375 22.75H4.33334ZM15.5188 10.4813L14.7604 9.72292L16.2771 11.2396L15.5188 10.4813Z" fill="#9550E9"/>
</svg>
