<svg width="28" height="28" viewBox="0 0 28 28" fill="none" xmlns="http://www.w3.org/2000/svg">
<path d="M6.99968 10.5H10.4997C10.8302 10.5 11.1075 10.388 11.3315 10.164C11.5555 9.94 11.6671 9.66311 11.6663 9.33334C11.6663 9.00278 11.5543 8.7255 11.3303 8.5015C11.1063 8.2775 10.8295 8.16589 10.4997 8.16667H6.99968C6.66912 8.16667 6.39184 8.27867 6.16784 8.50267C5.94384 8.72667 5.83223 9.00356 5.83301 9.33334C5.83301 9.66389 5.94501 9.94117 6.16901 10.1652C6.39301 10.3892 6.6699 10.5008 6.99968 10.5ZM6.99968 15.1667H10.4997C10.8302 15.1667 11.1075 15.0547 11.3315 14.8307C11.5555 14.6067 11.6671 14.3298 11.6663 14C11.6663 13.6694 11.5543 13.3922 11.3303 13.1682C11.1063 12.9442 10.8295 12.8326 10.4997 12.8333H6.99968C6.66912 12.8333 6.39184 12.9453 6.16784 13.1693C5.94384 13.3933 5.83223 13.6702 5.83301 14C5.83301 14.3306 5.94501 14.6078 6.16901 14.8318C6.39301 15.0558 6.6699 15.1674 6.99968 15.1667ZM6.99968 19.8333H10.4997C10.8302 19.8333 11.1075 19.7213 11.3315 19.4973C11.5555 19.2733 11.6671 18.9964 11.6663 18.6667C11.6663 18.3361 11.5543 18.0588 11.3303 17.8348C11.1063 17.6108 10.8295 17.4992 10.4997 17.5H6.99968C6.66912 17.5 6.39184 17.612 6.16784 17.836C5.94384 18.06 5.83223 18.3369 5.83301 18.6667C5.83301 18.9972 5.94501 19.2745 6.16901 19.4985C6.39301 19.7225 6.6699 19.8341 6.99968 19.8333ZM16.9747 17.0042C17.1302 17.0042 17.2761 16.9797 17.4122 16.9307C17.5483 16.8817 17.6747 16.7992 17.7913 16.6833L21.933 12.5417C22.1858 12.2889 22.3075 12.0116 22.2982 11.7098C22.2888 11.4081 22.1671 11.1409 21.933 10.9083C21.6997 10.675 21.4224 10.5583 21.1012 10.5583C20.78 10.5583 20.5031 10.675 20.2705 10.9083L16.9747 14.2042L16.1288 13.3583C15.8955 13.125 15.6233 13.0134 15.3122 13.0235C15.0011 13.0336 14.7288 13.1549 14.4955 13.3875C14.2816 13.6208 14.1696 13.8931 14.1595 14.2042C14.1494 14.5153 14.2614 14.7875 14.4955 15.0208L16.158 16.6833C16.2747 16.8 16.4011 16.8828 16.5372 16.9318C16.6733 16.9808 16.8191 17.0049 16.9747 17.0042ZM4.66634 24.5C4.02468 24.5 3.47518 24.2713 3.01784 23.814C2.56051 23.3567 2.33223 22.8076 2.33301 22.1667V5.83334C2.33301 5.19167 2.56168 4.64217 3.01901 4.18484C3.47634 3.7275 4.02545 3.49922 4.66634 3.5H23.333C23.9747 3.5 24.5242 3.72867 24.9815 4.186C25.4388 4.64334 25.6671 5.19245 25.6663 5.83334V22.1667C25.6663 22.8083 25.4377 23.3578 24.9803 23.8152C24.523 24.2725 23.9739 24.5008 23.333 24.5H4.66634Z" fill="#9550E9"/>
</svg>
