<svg width="28" height="28" viewBox="0 0 28 28" fill="none" xmlns="http://www.w3.org/2000/svg">
<path d="M16.3337 16.6273V19.0657C15.2777 18.6923 14.1476 18.5778 13.0383 18.7318C11.9289 18.8857 10.8727 19.3035 9.95833 19.9502C9.04393 20.597 8.29806 21.4536 7.78335 22.4483C7.26864 23.443 7.00011 24.5467 7.00033 25.6667L4.66699 25.6655C4.66663 24.2409 4.9924 22.8351 5.61934 21.5558C6.24628 20.2765 7.15775 19.1578 8.28391 18.2852C9.41007 17.4127 10.721 16.8095 12.1163 16.5219C13.5116 16.2344 14.9543 16.2712 16.3337 16.6273ZM14.0003 15.1667C10.1328 15.1667 7.00033 12.0342 7.00033 8.16667C7.00033 4.29917 10.1328 1.16667 14.0003 1.16667C17.8678 1.16667 21.0003 4.29917 21.0003 8.16667C21.0003 12.0342 17.8678 15.1667 14.0003 15.1667ZM14.0003 12.8333C16.5787 12.8333 18.667 10.745 18.667 8.16667C18.667 5.58834 16.5787 3.50001 14.0003 3.50001C11.422 3.50001 9.33366 5.58834 9.33366 8.16667C9.33366 10.745 11.422 12.8333 14.0003 12.8333ZM23.3337 19.8333H26.8337V22.1667H23.3337V26.25L17.5003 21L23.3337 15.75V19.8333Z" fill="#9550E9"/>
</svg>
