<svg width="26" height="26" viewBox="0 0 26 26" fill="none" xmlns="http://www.w3.org/2000/svg">
<path d="M11.0826 17.1492C11.5051 17.5717 12.1876 17.5717 12.6101 17.1492L17.2034 12.5558C17.6259 12.1333 17.6259 11.4508 17.2034 11.0175C17.1032 10.9171 16.9841 10.8374 16.8531 10.783C16.722 10.7287 16.5815 10.7007 16.4396 10.7007C16.2978 10.7007 16.1573 10.7287 16.0262 10.783C15.8952 10.8374 15.7761 10.9171 15.6759 11.0175L11.8409 14.8417L10.3134 13.3142C9.89089 12.8917 9.20839 12.8917 8.77505 13.3142C8.34172 13.7367 8.35255 14.4192 8.77505 14.8417L11.0826 17.1492Z" fill="#9550E9"/>
<path d="M20.5833 4.33333H5.41667C4.84203 4.33333 4.29093 4.5616 3.8846 4.96793C3.47827 5.37426 3.25 5.92536 3.25 6.49999V19.5C3.25 20.0746 3.47827 20.6257 3.8846 21.0321C4.29093 21.4384 4.84203 21.6667 5.41667 21.6667H20.5833C21.775 21.6667 22.75 20.6917 22.75 19.5V6.49999C22.75 5.92536 22.5217 5.37426 22.1154 4.96793C21.7091 4.5616 21.158 4.33333 20.5833 4.33333ZM20.5833 18.4167C20.5833 19.0125 20.0958 19.5 19.5 19.5H6.5C5.90417 19.5 5.41667 19.0125 5.41667 18.4167V8.66666H20.5833V18.4167Z" fill="#9550E9"/>
</svg>
