<svg width="18" height="14" viewBox="0 0 18 14" fill="none" xmlns="http://www.w3.org/2000/svg">
<path d="M0.465085 3.53553L0.464469 3.53492C0.321866 3.39281 0.25 3.22023 0.25 3V1C0.25 0.779758 0.321885 0.606669 0.464777 0.463777C0.606822 0.321731 0.779492 0.25 1 0.25H3C3.22036 0.25 3.39345 0.321646 3.53622 0.463774C3.67835 0.606545 3.75 0.779641 3.75 1V3C3.75 3.22051 3.67827 3.39318 3.53622 3.53522C3.39333 3.67812 3.22024 3.75 3 3.75H1C0.779767 3.75 0.607192 3.67813 0.465085 3.53553ZM17.5355 3.53491L17.5349 3.53553C17.3928 3.67813 17.2202 3.75 17 3.75H6C5.77977 3.75 5.60719 3.67813 5.46509 3.53553L5.46447 3.53492C5.32187 3.39281 5.25 3.22023 5.25 3V1C5.25 0.779758 5.32189 0.606669 5.46478 0.463777C5.60682 0.321731 5.77949 0.25 6 0.25H17C17.2205 0.25 17.3932 0.321731 17.5352 0.463777C17.6781 0.606669 17.75 0.779758 17.75 1V3C17.75 3.22023 17.6781 3.39281 17.5355 3.53491ZM0.465085 8.53553L0.464469 8.53492C0.321866 8.39281 0.25 8.22023 0.25 8V6C0.25 5.77976 0.321885 5.60667 0.464777 5.46378C0.606822 5.32173 0.779492 5.25 1 5.25H3C3.22037 5.25 3.39347 5.32166 3.53625 5.4638C3.67836 5.60657 3.75 5.77966 3.75 6V8C3.75 8.22051 3.67827 8.39318 3.53622 8.53522C3.39333 8.67811 3.22024 8.75 3 8.75H1C0.779767 8.75 0.607192 8.67813 0.465085 8.53553ZM5.46509 8.53553L5.46447 8.53492C5.32187 8.39281 5.25 8.22023 5.25 8V6C5.25 5.77976 5.32189 5.60667 5.46478 5.46378C5.60682 5.32173 5.77949 5.25 6 5.25H17C17.2205 5.25 17.3932 5.32173 17.5352 5.46378C17.6781 5.60667 17.75 5.77976 17.75 6V8C17.75 8.22023 17.6781 8.39281 17.5355 8.53491L17.5349 8.53553C17.3928 8.67813 17.2202 8.75 17 8.75H6C5.77977 8.75 5.60719 8.67813 5.46509 8.53553ZM0.465085 13.5355L0.464469 13.5349C0.321866 13.3928 0.25 13.2202 0.25 13V11C0.25 10.7798 0.321885 10.6067 0.464777 10.4638C0.606822 10.3217 0.779492 10.25 1 10.25H3C3.22037 10.25 3.39347 10.3217 3.53625 10.4638C3.67836 10.6066 3.75 10.7797 3.75 11V13C3.75 13.2205 3.67827 13.3932 3.53622 13.5352C3.39333 13.6781 3.22024 13.75 3 13.75H1C0.779767 13.75 0.607192 13.6781 0.465085 13.5355ZM5.46509 13.5355L5.46447 13.5349C5.32187 13.3928 5.25 13.2202 5.25 13V11C5.25 10.7798 5.32189 10.6067 5.46478 10.4638C5.60682 10.3217 5.77949 10.25 6 10.25H17C17.2205 10.25 17.3932 10.3217 17.5352 10.4638C17.6781 10.6067 17.75 10.7798 17.75 11V13C17.75 13.2202 17.6781 13.3928 17.5355 13.5349L17.5349 13.5355C17.3928 13.6781 17.2202 13.75 17 13.75H6C5.77977 13.75 5.60719 13.6781 5.46509 13.5355Z" stroke="black" stroke-width="0.5"/>
</svg>
