<svg width="18" height="17" viewBox="0 0 18 17" fill="none" xmlns="http://www.w3.org/2000/svg">
<path d="M16.6501 6.04L11.8101 5.62L9.92007 1.17C9.58007 0.36 8.42007 0.36 8.08007 1.17L6.19007 5.63L1.36007 6.04C0.480073 6.11 0.120073 7.21 0.790073 7.79L4.46007 10.97L3.36007 15.69C3.16007 16.55 4.09007 17.23 4.85007 16.77L9.00007 14.27L13.1501 16.78C13.9101 17.24 14.8401 16.56 14.6401 15.7L13.5401 10.97L17.2101 7.79C17.8801 7.21 17.5301 6.11 16.6501 6.04ZM9.00007 12.4L5.24007 14.67L6.24007 10.39L2.92007 7.51L7.30007 7.13L9.00007 3.1L10.7101 7.14L15.0901 7.52L11.7701 10.4L12.7701 14.68L9.00007 12.4Z" fill="#9550E9"/>
</svg>
